<?xml version="1.0" encoding="UTF-8"?>
<svg id="Ebene_1" data-name="Ebene 1" xmlns="http://www.w3.org/2000/svg" viewBox="0 0 24 24">
  <g id="Bounding_box" data-name="Bounding box">
    <rect width="24" height="24" fill="none"/>
  </g>
  <path id="Icon" d="m12,2C6.48,2,2,6.48,2,12s4.48,10,10,10,10-4.48,10-10S17.52,2,12,2Zm0,18c-4.42,0-8-3.58-8-8S7.58,4,12,4s8,3.58,8,8c0,4.42-3.58,7.99-8,8Zm1-7h-2v-6h2v6Zm.5,3c0,.83-.67,1.5-1.5,1.5s-1.5-.67-1.5-1.5.67-1.5,1.5-1.5,1.5.67,1.5,1.5Z" fill="currentColor"/>
</svg>